<svg xmlns="http://www.w3.org/2000/svg" width="512" height="512" viewBox="0 0 512 512"><path fill="#FFF" d="M293.75 455.868c-20.18 20.18-53.164 19.913-73.672-.595-20.508-20.508-20.773-53.493-.594-73.672l190-190c20.177-20.176 53.163-19.91 73.67.597 20.51 20.51 20.773 53.492.596 73.67l-190 190.002z"/><path fill="#FFF" d="M220.25 455.868c20.18 20.18 53.163 19.913 73.67-.595 20.51-20.508 20.775-53.493.597-73.672l-190-190c-20.178-20.176-53.164-19.91-73.67.597-20.51 20.51-20.773 53.492-.596 73.67l190 190.002z"/></svg>